<svg viewBox="0 0 200 200" fill="none" xmlns="http://www.w3.org/2000/svg">
  <path fill-rule="evenodd" clip-rule="evenodd" d="M100 54.2589C81.9874 56.4131 68.0233 71.7444 68.0233 90.3372V110.395C68.0233 118.576 70.7263 126.125 75.288 132.198H36.3372C24.2961 132.198 14.5349 122.436 14.5349 110.395C14.5349 104.856 10.0447 100.366 4.50581 100.366H0V110.395C0 130.464 16.2687 146.733 36.3372 146.733H95.6395C97.1152 146.733 98.5704 146.645 100 146.474C118.013 144.319 131.977 128.988 131.977 110.395V90.3372C131.977 82.1569 129.274 74.608 124.712 68.5349H167.369C174.336 68.5349 180.383 72.4718 183.407 78.2422C185.643 82.5082 189.37 86.6308 194.186 86.6308H200C200 68.6093 185.391 54 167.369 54H104.36C102.885 54 101.43 54.088 100 54.2589ZM100 68.971C90.0484 70.9911 82.5581 79.7894 82.5581 90.3372V110.395C82.5581 120.943 90.0484 129.741 100 131.762C109.952 129.741 117.442 120.943 117.442 110.395V90.3372C117.442 79.7894 109.952 70.9911 100 68.971Z" />
  <path d="M36.3372 54H79.6977C74.2248 57.7589 69.6535 62.7333 66.3736 68.5349H50.8721C42.8447 68.5349 36.3372 62.0274 36.3372 54Z" />
  <path d="M120.634 146.733C126.032 142.952 130.533 137.98 133.756 132.198H167.369C174.336 132.198 180.383 128.261 183.407 122.49C185.643 118.224 189.37 114.102 194.186 114.102H200C200 132.123 185.391 146.733 167.369 146.733H120.634Z" />
  <style>
        path { fill: #000; }
        @media (prefers-color-scheme: dark) {
        path { fill: #FFF; }
        }
    </style>
</svg>