<svg viewBox="0 0 688 319" fill="none" xmlns="http://www.w3.org/2000/svg">
  <path fill-rule="evenodd" clip-rule="evenodd" d="M344 0.890747C282.037 8.30108 234 61.0408 234 125V194C234 222.14 243.299 248.108 258.991 269H125C83.5786 269 50 235.421 50 194C50 174.946 34.5538 159.5 15.5 159.5H0V194C0 263.036 55.9644 319 125 319H329C334.076 319 339.082 318.697 344 318.109C405.963 310.699 454 257.959 454 194V125C454 96.8599 444.701 70.8915 429.009 50H575.75C599.716 50 620.518 63.5429 630.922 83.3931C638.613 98.0682 651.431 112.25 668 112.25H688C688 50.256 637.744 0 575.75 0H359C353.924 0 348.918 0.302598 344 0.890747ZM344 51.5003C309.766 58.4493 284 88.7156 284 125V194C284 230.284 309.766 260.551 344 267.5C378.234 260.551 404 230.284 404 194V125C404 88.7156 378.234 58.4493 344 51.5003Z" fill="white"/>
  <path d="M125 0H274.16C255.333 12.9305 239.608 30.0424 228.325 50H175C147.386 50 125 27.6142 125 0Z" fill="white"/>
  <path d="M414.982 319C433.55 305.993 449.033 288.891 460.12 269H575.75C599.716 269 620.518 255.457 630.922 235.607C638.613 220.932 651.431 206.75 668 206.75H688C688 268.744 637.744 319 575.75 319H414.982Z" fill="white"/>
</svg>